<svg width="20" height="21" viewBox="0 0 20 21" fill="none" xmlns="http://www.w3.org/2000/svg">
<path opacity="0.5" d="M2.5 8.83332C2.5 5.69062 2.5 4.11928 3.47631 3.14296C4.45262 2.16666 6.02397 2.16666 9.16667 2.16666H10.8333C13.976 2.16666 15.5474 2.16666 16.5237 3.14296C17.5 4.11928 17.5 5.69062 17.5 8.83332V12.1667C17.5 15.3093 17.5 16.8807 16.5237 17.857C15.5474 18.8333 13.976 18.8333 10.8333 18.8333H9.16667C6.02397 18.8333 4.45262 18.8333 3.47631 17.857C2.5 16.8807 2.5 15.3093 2.5 12.1667V8.83332Z" fill="#1E88E5"/>
<path fill-rule="evenodd" clip-rule="evenodd" d="M6.0415 8.83334C6.0415 8.48817 6.32133 8.20834 6.6665 8.20834H13.3332C13.6783 8.20834 13.9582 8.48817 13.9582 8.83334C13.9582 9.17851 13.6783 9.45834 13.3332 9.45834H6.6665C6.32133 9.45834 6.0415 9.17851 6.0415 8.83334Z" fill="#1E88E5"/>
<path fill-rule="evenodd" clip-rule="evenodd" d="M6.0415 12.1667C6.0415 11.8215 6.32133 11.5417 6.6665 11.5417H10.8332C11.1783 11.5417 11.4582 11.8215 11.4582 12.1667C11.4582 12.5118 11.1783 12.7917 10.8332 12.7917H6.6665C6.32133 12.7917 6.0415 12.5118 6.0415 12.1667Z" fill="#1E88E5"/>
</svg>
