<svg width="20" height="21" viewBox="0 0 20 21" fill="none" xmlns="http://www.w3.org/2000/svg">
<path opacity="0.5" fill-rule="evenodd" clip-rule="evenodd" d="M9.99984 18.8333C14.6022 18.8333 18.3332 15.1023 18.3332 10.5C18.3332 5.89761 14.6022 2.16666 9.99984 2.16666C5.39746 2.16666 1.6665 5.89761 1.6665 10.5C1.6665 15.1023 5.39746 18.8333 9.99984 18.8333ZM9.99984 13.8333C11.8408 13.8333 13.3332 12.3409 13.3332 10.5C13.3332 8.65904 11.8408 7.16666 9.99984 7.16666C8.15889 7.16666 6.6665 8.65904 6.6665 10.5C6.6665 12.3409 8.15889 13.8333 9.99984 13.8333Z" fill="#1E88E5"/>
<path d="M4.56554 16.8182L8.12616 13.2575C7.77892 13.0212 7.47864 12.7209 7.24224 12.3737L3.68164 15.9342C3.95384 16.2504 4.24937 16.5459 4.56554 16.8182Z" fill="#1E88E5"/>
<path d="M3.68164 5.06592L7.24225 8.62653C7.47863 8.27929 7.7789 7.97903 8.12613 7.74265L4.56552 4.18204C4.24935 4.45423 3.95383 4.74975 3.68164 5.06592Z" fill="#1E88E5"/>
<path d="M11.873 7.74273L15.4336 4.18213C15.7498 4.45433 16.0454 4.74985 16.3175 5.06603L12.7569 8.62665C12.5205 8.2794 12.2203 7.97913 11.873 7.74273Z" fill="#1E88E5"/>
<path d="M16.3175 15.9342L12.7569 12.3736C12.5205 12.7208 12.2203 13.0211 11.873 13.2574L15.4336 16.8181C15.7498 16.5458 16.0453 16.2503 16.3175 15.9342Z" fill="#1E88E5"/>
</svg>
