<svg width="20" height="21" viewBox="0 0 20 21" fill="none" xmlns="http://www.w3.org/2000/svg">
<path d="M17.5742 6.3167C16.8658 5.53337 15.6825 5.1417 13.9658 5.1417H13.7658V5.10837C13.7658 3.70837 13.7658 1.97504 10.6325 1.97504H9.36584C6.23247 1.97504 6.23247 3.7167 6.23247 5.10837V5.15004H6.03247C4.30747 5.15004 3.13247 5.5417 2.42414 6.32504C1.59914 7.2417 1.62414 8.47504 1.70747 9.31669L1.7158 9.37502L1.79914 10.25C1.80747 10.2584 1.82414 10.275 1.8408 10.2834C2.1158 10.4667 2.39914 10.65 2.69914 10.8167C2.8158 10.8917 2.9408 10.9584 3.0658 11.025C4.4908 11.8084 6.05747 12.3334 7.64914 12.5917C7.72414 13.375 8.0658 14.2917 9.89084 14.2917C11.7158 14.2917 12.0742 13.3834 12.1325 12.575C13.8325 12.3 15.4742 11.7084 16.9575 10.8417C17.0075 10.8167 17.0408 10.7917 17.0825 10.7667C17.4658 10.55 17.8242 10.3167 18.1742 10.0584C18.1908 10.05 18.2075 10.0334 18.2158 10.0167L18.2492 9.71669L18.2908 9.32502C18.2992 9.27502 18.2992 9.23335 18.3075 9.17502C18.3742 8.33337 18.3575 7.18337 17.5742 6.3167ZM10.9075 12.025C10.9075 12.9084 10.9075 13.0417 9.8825 13.0417C8.8575 13.0417 8.8575 12.8834 8.8575 12.0334V10.9834H10.9075V12.025ZM7.42414 5.1417V5.10837C7.42414 3.6917 7.42414 3.1667 9.36584 3.1667H10.6325C12.5742 3.1667 12.5742 3.70004 12.5742 5.10837V5.15004H7.42414V5.1417Z" fill="#1E88E5"/>
<path opacity="0.4" d="M17.0834 10.7499C17.0417 10.7749 17.0001 10.7999 16.9584 10.8249C15.4751 11.6916 13.8334 12.2749 12.1334 12.5583C12.0667 13.3583 11.7167 14.2749 9.89175 14.2749C8.06672 14.2749 7.71672 13.3666 7.65005 12.5749C6.05838 12.3249 4.49172 11.7999 3.06672 11.0083C2.94172 10.9416 2.81672 10.8749 2.70005 10.7999C2.40005 10.6333 2.11672 10.4499 1.84172 10.2666C1.82505 10.2583 1.80838 10.2416 1.80005 10.2333L2.30838 15.6583C2.48338 17.3166 3.16672 19.0249 6.83338 19.0249H13.1834C16.8501 19.0249 17.5334 17.3166 17.7084 15.6499L18.2334 9.99994C18.2251 10.0166 18.2084 10.0333 18.1917 10.0416C17.8334 10.2999 17.4668 10.5416 17.0834 10.7499Z" fill="#1E88E5"/>
</svg>
