<svg width="20" height="21" viewBox="0 0 20 21" fill="none" xmlns="http://www.w3.org/2000/svg">
<path opacity="0.4" d="M10.4173 6.67488V18.8333H3.40067C2.434 18.8333 1.64233 18.0582 1.64233 17.1082V4.74155C1.64233 2.55822 3.27567 1.56655 5.26733 2.54155L8.959 4.36655C9.759 4.75822 10.4173 5.79988 10.4173 6.67488Z" fill="#1E88E5"/>
<path d="M7.47492 8.625H4.58325C4.24159 8.625 3.95825 8.34167 3.95825 8C3.95825 7.65833 4.24159 7.375 4.58325 7.375H7.47492C7.81659 7.375 8.09992 7.65833 8.09992 8C8.09992 8.34167 7.82492 8.625 7.47492 8.625Z" fill="#1E88E5"/>
<path d="M7.47492 11.9583H4.58325C4.24159 11.9583 3.95825 11.675 3.95825 11.3333C3.95825 10.9916 4.24159 10.7083 4.58325 10.7083H7.47492C7.81659 10.7083 8.09992 10.9916 8.09992 11.3333C8.09992 11.675 7.82492 11.9583 7.47492 11.9583Z" fill="#1E88E5"/>
<path opacity="0.6" d="M18.3334 13.0416V16.7499C18.3334 17.8999 17.4001 18.8332 16.2501 18.8332H10.4167V9.18323L10.8084 9.26656L14.1751 10.0166L14.5751 10.1082L16.2751 10.4916C16.6834 10.5749 17.0584 10.7166 17.3834 10.9249C17.3834 10.9332 17.3917 10.9332 17.3917 10.9332C17.4751 10.9916 17.5584 11.0582 17.6334 11.1332C18.0167 11.5166 18.2667 12.0749 18.3251 12.8916C18.3251 12.9416 18.3334 12.9916 18.3334 13.0416Z" fill="#1E88E5"/>
<path d="M10.4167 9.18323V14.1832C10.8001 14.6916 11.4001 15.0166 12.0834 15.0166C13.2417 15.0166 14.1751 14.0832 14.1751 12.9332V10.0249L10.8084 9.27489L10.4167 9.18323Z" fill="#1E88E5"/>
<path d="M18.3248 12.8916C18.2665 12.0749 18.0165 11.5166 17.6331 11.1333C17.5581 11.0583 17.4748 10.9916 17.3915 10.9333C17.3915 10.9333 17.3831 10.9333 17.3831 10.9249C17.0581 10.7166 16.6831 10.5749 16.2748 10.4916L14.5748 10.1083L14.1748 10.0166V12.9333C14.1748 14.0749 15.0998 15.0166 16.2581 15.0166C17.3748 15.0166 18.2665 14.1416 18.3331 13.0499V13.0416C18.3331 12.9916 18.3248 12.9416 18.3248 12.8916Z" fill="#1E88E5"/>
</svg>
