<svg width="20" height="21" viewBox="0 0 20 21" fill="none" xmlns="http://www.w3.org/2000/svg">
<path d="M10.0002 12.1666C10.9207 12.1666 11.6668 11.4205 11.6668 10.5C11.6668 9.57948 10.9207 8.83331 10.0002 8.83331C9.07966 8.83331 8.3335 9.57948 8.3335 10.5C8.3335 11.4205 9.07966 12.1666 10.0002 12.1666Z" fill="#1E88E5"/>
<g opacity="0.4">
<path d="M4.55558 4.16006C4.79941 4.40438 4.79902 4.80011 4.5547 5.04394C3.15585 6.44 2.2915 8.36848 2.2915 10.5C2.2915 12.6565 3.1762 14.6052 4.60403 16.0049C4.85052 16.2466 4.85445 16.6422 4.61281 16.8887C4.37118 17.1352 3.97547 17.1392 3.72898 16.8975C2.0712 15.2724 1.0415 13.0059 1.0415 10.5C1.0415 8.02319 2.04751 5.78013 3.6717 4.15918C3.91601 3.91535 4.31175 3.91574 4.55558 4.16006Z" fill="#1E88E5"/>
<path d="M15.5136 4.22038C15.7601 3.97873 16.1558 3.98267 16.3975 4.22916C17.9809 5.84438 18.9583 8.05868 18.9583 10.5C18.9583 12.9704 17.9575 15.2082 16.3408 16.8282C16.097 17.0725 15.7012 17.0729 15.457 16.8291C15.2126 16.5852 15.2122 16.1895 15.456 15.9452C16.8485 14.55 17.7083 12.626 17.7083 10.5C17.7083 8.39893 16.8685 6.49524 15.5049 5.10422C15.2632 4.85773 15.2671 4.46202 15.5136 4.22038Z" fill="#1E88E5"/>
</g>
<g opacity="0.8">
<path d="M6.92436 6.73964C7.16022 6.99167 7.1471 7.38718 6.89507 7.62304C6.10431 8.36303 5.625 9.37519 5.625 10.4852C5.625 11.6081 6.11557 12.631 6.92297 13.3732C7.17709 13.6069 7.19373 14.0022 6.96013 14.2564C6.72654 14.5104 6.33116 14.5271 6.07703 14.2935C5.03306 13.3339 4.375 11.9854 4.375 10.4852C4.375 9.00252 5.0179 7.66773 6.04097 6.71035C6.293 6.47449 6.68851 6.4876 6.92436 6.73964Z" fill="#1E88E5"/>
<path d="M13.1191 6.7713C13.3576 6.52186 13.7532 6.51306 14.0027 6.75166C15.0004 7.70592 15.625 9.02383 15.625 10.4852C15.625 11.964 14.9854 13.2957 13.967 14.2525C13.7155 14.4888 13.3199 14.4765 13.0836 14.225C12.8472 13.9734 12.8596 13.5779 13.1111 13.3415C13.8981 12.6021 14.375 11.5922 14.375 10.4852C14.375 9.39091 13.9092 8.39202 13.1386 7.65496C12.8892 7.41637 12.8805 7.02075 13.1191 6.7713Z" fill="#1E88E5"/>
</g>
</svg>
