<svg width="20" height="21" viewBox="0 0 20 21" fill="none" xmlns="http://www.w3.org/2000/svg">
<path opacity="0.4" d="M5.60844 16.9167C6.29177 16.1834 7.33345 16.2417 7.93345 17.0417L8.77509 18.1667C9.45009 19.0584 10.5418 19.0584 11.2168 18.1667L12.0584 17.0417C12.6584 16.2417 13.7001 16.1834 14.3834 16.9167C15.8668 18.5 17.0751 17.975 17.0751 15.7584V6.36669C17.0751 3.00835 16.2918 2.16669 13.1418 2.16669H6.84179C3.69179 2.16669 2.90845 3.00835 2.90845 6.36669V15.75C2.91678 17.975 4.13344 18.4917 5.60844 16.9167Z" fill="#1E88E5"/>
<path d="M12.2916 9.45831H7.70825C7.36659 9.45831 7.08325 9.17498 7.08325 8.83331C7.08325 8.49165 7.36659 8.20831 7.70825 8.20831H12.2916C12.6333 8.20831 12.9166 8.49165 12.9166 8.83331C12.9166 9.17498 12.6333 9.45831 12.2916 9.45831Z" fill="#1E88E5"/>
</svg>
