<svg width="71" height="70" viewBox="0 0 71 70" fill="none" xmlns="http://www.w3.org/2000/svg">
<rect x="0.666748" width="70" height="70" rx="14" fill="#EE6A5F" fill-opacity="0.1"/>
<path d="M35.6667 17C45.6078 17 53.6667 25.0589 53.6667 35C53.6667 44.941 45.6078 53 35.6667 53C25.7256 53 17.6667 44.941 17.6667 35C17.6667 25.0589 25.7256 17 35.6667 17ZM39.2673 37.5195L36.4517 39.7718C36.0329 40.1068 35.9983 40.7316 36.3776 41.111L38.607 43.3403C39.0396 43.7728 39.3548 44.3087 39.5229 44.8969L39.8379 45.9996C40.1217 46.9927 40.8185 47.7226 41.6681 48.0936C43.3999 47.2985 44.9468 46.1701 46.2266 44.7902L45.8056 41.4118C45.6564 40.2173 44.92 39.1765 43.8434 38.6383L41.1967 37.315C40.5687 37.0011 39.8156 37.0808 39.2673 37.5195ZM35.6671 20.6002C31.026 20.6002 26.8977 22.7958 24.2643 26.205L23.9671 26.6037V29.6366C23.9671 31.8975 25.3733 33.9059 27.4682 34.6919L27.7876 34.8006L30.1106 35.511C32.582 36.267 34.9884 34.2559 34.749 31.7388L34.7147 31.4767L34.4003 29.5898C34.2549 28.7173 34.7639 27.88 35.5808 27.5949L35.7746 27.5391L36.8758 27.2874C38.7183 26.8663 40.1421 25.403 40.5129 23.5497C40.6585 22.8215 40.6308 22.0951 40.456 21.4157C38.9579 20.8875 37.346 20.6002 35.6671 20.6002Z" fill="#EE6A5F"/>
</svg>
