<svg width="71" height="70" viewBox="0 0 71 70" fill="none" xmlns="http://www.w3.org/2000/svg">
<rect x="0.333496" width="70" height="70" rx="14" fill="#2DCE89" fill-opacity="0.1"/>
<path d="M30.5324 32.1176C34.776 32.1176 38.2162 28.6775 38.2162 24.4338C38.2162 20.1902 34.776 16.75 30.5324 16.75C26.2887 16.75 22.8485 20.1902 22.8485 24.4338C22.8485 28.6775 26.2887 32.1176 30.5324 32.1176Z" fill="#2DCE89"/>
<path d="M30.5324 53.25C37.9587 53.25 43.979 49.8098 43.979 45.5662C43.979 41.3225 37.9587 37.8824 30.5324 37.8824C23.106 37.8824 17.0857 41.3225 17.0857 45.5662C17.0857 49.8098 23.106 53.25 30.5324 53.25Z" fill="#2DCE89"/>
<path d="M53.5812 45.5652C53.5812 48.7479 49.6711 51.3279 44.8969 51.3279C46.3034 49.7906 47.2706 47.8608 47.2706 45.5677C47.2706 43.2722 46.3011 41.3407 44.8919 39.8024C49.6661 39.8024 53.5812 42.3824 53.5812 45.5652Z" fill="#2DCE89"/>
<path d="M47.8183 24.4352C47.8183 27.618 45.2382 30.1981 42.0554 30.1981C41.3614 30.1981 40.6961 30.0754 40.0799 29.8505C40.9887 28.2521 41.5077 26.4032 41.5077 24.4331C41.5077 22.4644 40.9895 20.6168 40.0818 19.0192C40.6975 18.7948 41.3621 18.6724 42.0554 18.6724C45.2382 18.6724 47.8183 21.2525 47.8183 24.4352Z" fill="#2DCE89"/>
</svg>
