<svg width="70" height="70" viewBox="0 0 70 70" fill="none" xmlns="http://www.w3.org/2000/svg">
<rect width="70" height="70" rx="14" fill="#FFD255" fill-opacity="0.1"/>
<path d="M40.7086 33.5486C40.4529 33.4369 40.1972 33.3361 39.9379 33.2424C41.7315 31.791 42.8768 29.5761 42.8768 27.0982C42.8768 22.7403 39.3328 19.1964 34.9749 19.1964C30.617 19.1964 27.0731 22.7403 27.0731 27.0982C27.0731 29.5797 28.222 31.7982 30.0156 33.246C24.462 35.2737 20.4858 40.6112 20.4858 46.86H23.1186C23.1186 40.3231 28.4381 35.0072 34.9713 35.0072C36.6028 35.0072 38.1803 35.3314 39.6606 35.9688L40.7086 33.5486ZM34.9749 21.8291C37.8814 21.8291 40.244 24.1917 40.244 27.0982C40.244 30.0046 37.8814 32.3673 34.9749 32.3673C32.0685 32.3673 29.7058 30.001 29.7058 27.0982C29.7058 24.1953 32.0685 21.8291 34.9749 21.8291ZM38.6197 39.484C38.6197 39.8513 38.8214 40.1863 39.1455 40.3555L43.7555 42.7902C43.8996 42.8658 44.0581 42.9054 44.2165 42.9054C44.375 42.9054 44.5335 42.8658 44.6775 42.7902L49.2875 40.3555C49.6117 40.1827 49.8134 39.8477 49.8134 39.484C49.8134 39.1202 49.6117 38.7816 49.2875 38.6124L44.6775 36.1741C44.3894 36.0229 44.0437 36.0229 43.7555 36.1741L39.1455 38.6124C38.8214 38.7816 38.6197 39.1166 38.6197 39.484ZM44.2165 38.1658L46.7124 39.484L44.2165 40.8021L41.7207 39.484L44.2165 38.1658Z" fill="#FFD255"/>
<path d="M44.2165 44.0543L38.9222 41.2559L38.0002 43.0027L44.2165 46.2873L50.4076 43.0171L49.4856 41.2703L44.2165 44.0543Z" fill="#FFD255"/>
<path d="M44.2165 47.2237L38.9222 44.4289L38.0002 46.1721L44.2165 49.4603L50.386 46.1973L49.464 44.4505L44.2165 47.2237Z" fill="#FFD255"/>
</svg>
