<svg width="20" height="20" viewBox="0 0 20 20" fill="none" xmlns="http://www.w3.org/2000/svg">
<path opacity="0.5" fill-rule="evenodd" clip-rule="evenodd" d="M2.88675 17.1125C4.10841 18.3333 6.07175 18.3333 10.0001 18.3333C13.9284 18.3333 15.8926 18.3333 17.1126 17.1125C18.3334 15.8933 18.3334 13.9283 18.3334 10C18.3334 6.07167 18.3334 4.10751 17.1126 2.88667C15.8934 1.66667 13.9284 1.66667 10.0001 1.66667C6.07175 1.66667 4.10758 1.66667 2.88675 2.88667C1.66675 4.10834 1.66675 6.07167 1.66675 10C1.66675 13.9283 1.66675 15.8925 2.88675 17.1125Z" fill="#9E9E9E"/>
<path d="M11.186 14.4683L14.1126 6.83C14.1682 6.6982 14.1831 6.55284 14.1556 6.4125C14.1281 6.27216 14.0593 6.14321 13.9582 6.04213C13.857 5.94104 13.728 5.87242 13.5876 5.84503C13.4472 5.81763 13.3019 5.83271 13.1701 5.88834L5.53181 8.81417C4.84014 9.08 4.81764 10.05 5.49848 10.2567L8.39598 11.1375C8.62098 11.2058 8.79431 11.3792 8.86264 11.6042L9.74348 14.5017C9.95014 15.1825 10.9201 15.16 11.1851 14.4683H11.186Z" fill="#9E9E9E"/>
</svg>
