<svg width="20" height="21" viewBox="0 0 20 21" fill="none" xmlns="http://www.w3.org/2000/svg">
<path fill-rule="evenodd" clip-rule="evenodd" d="M9.99992 18.8334C6.31802 18.8334 3.33325 15.7951 3.33325 12.0473C3.33325 8.32879 5.46102 3.98968 8.78084 2.43798C9.16775 2.25712 9.58384 2.16669 9.99992 2.16669V18.8334Z" fill="#9E9E9E"/>
<path opacity="0.3" d="M11.2191 2.43798C10.8322 2.25712 10.4161 2.16669 10 2.16669V8.00007L13.6931 4.30703C12.9741 3.51718 12.1428 2.8697 11.2191 2.43798Z" fill="#9E9E9E"/>
<path opacity="0.4" d="M10 8.00005V12.5834L15.5118 7.07147C15.0351 6.05466 14.4218 5.10768 13.6931 4.30701L10 8.00005Z" fill="#9E9E9E"/>
<path opacity="0.6" d="M10 16.75L16.5092 10.2409C16.3259 9.16552 15.9865 8.08386 15.5118 7.07147L10 12.5834V16.75Z" fill="#9E9E9E"/>
<path opacity="0.7" d="M16.5092 10.2408L10 16.75V18.8333C13.6819 18.8333 16.6667 15.7951 16.6667 12.0473C16.6667 11.4563 16.6129 10.8495 16.5092 10.2408Z" fill="#9E9E9E"/>
</svg>
