<svg width="20" height="21" viewBox="0 0 20 21" fill="none" xmlns="http://www.w3.org/2000/svg">
<path opacity="0.4" d="M15.7834 5.01662L11.4751 2.52495C10.6501 2.04995 9.35841 2.04995 8.53341 2.52495L4.1834 5.03328C2.4584 6.19995 2.3584 6.37495 2.3584 8.23328V12.7583C2.3584 14.6166 2.4584 14.7999 4.21673 15.9833L8.52508 18.4749C8.94175 18.7166 9.47508 18.8333 10.0001 18.8333C10.5251 18.8333 11.0584 18.7166 11.4667 18.4749L15.8167 15.9666C17.5417 14.7999 17.6417 14.6249 17.6417 12.7666V8.23328C17.6417 6.37495 17.5417 6.19995 15.7834 5.01662Z" fill="#9E9E9E"/>
<path d="M9.99984 13.2084C11.4956 13.2084 12.7082 11.9958 12.7082 10.5C12.7082 9.00427 11.4956 7.79169 9.99984 7.79169C8.50409 7.79169 7.2915 9.00427 7.2915 10.5C7.2915 11.9958 8.50409 13.2084 9.99984 13.2084Z" fill="#9E9E9E"/>
</svg>
