<svg width="20" height="21" viewBox="0 0 20 21" fill="none" xmlns="http://www.w3.org/2000/svg">
<path opacity="0.4" d="M5.60852 16.9167C6.29185 16.1833 7.33352 16.2417 7.93352 17.0417L8.77517 18.1667C9.45016 19.0583 10.5418 19.0583 11.2168 18.1667L12.0585 17.0417C12.6585 16.2417 13.7002 16.1833 14.3835 16.9167C15.8668 18.5 17.0752 17.975 17.0752 15.7583V6.36666C17.0752 3.00832 16.2918 2.16666 13.1418 2.16666H6.84187C3.69187 2.16666 2.90852 3.00832 2.90852 6.36666V15.75C2.91686 17.975 4.13352 18.4917 5.60852 16.9167Z" fill="#9E9E9E"/>
<path d="M12.2917 9.45834H7.70833C7.36667 9.45834 7.08333 9.17501 7.08333 8.83334C7.08333 8.49168 7.36667 8.20834 7.70833 8.20834H12.2917C12.6333 8.20834 12.9167 8.49168 12.9167 8.83334C12.9167 9.17501 12.6333 9.45834 12.2917 9.45834Z" fill="#9E9E9E"/>
</svg>
