<svg width="20" height="21" viewBox="0 0 20 21" fill="none" xmlns="http://www.w3.org/2000/svg">
<path fill-rule="evenodd" clip-rule="evenodd" d="M18.3334 10.5C18.3334 15.1024 14.6024 18.8334 10.0001 18.8334C5.39771 18.8334 1.66675 15.1024 1.66675 10.5C1.66675 5.89765 5.39771 2.16669 10.0001 2.16669C14.6024 2.16669 18.3334 5.89765 18.3334 10.5ZM12.5001 8.00002C12.5001 9.38077 11.3808 10.5 10.0001 10.5C8.61933 10.5 7.50008 9.38077 7.50008 8.00002C7.50008 6.61931 8.61933 5.50002 10.0001 5.50002C11.3808 5.50002 12.5001 6.61931 12.5001 8.00002ZM10.0001 17.5834C11.4867 17.5834 12.8665 17.1254 14.0058 16.3427C14.5091 15.997 14.7241 15.3385 14.4316 14.8027C13.8251 13.6919 12.5752 13 10 13C7.42482 13 6.17506 13.6919 5.56853 14.8027C5.27596 15.3385 5.491 15.9969 5.99421 16.3426C7.13356 17.1253 8.51333 17.5834 10.0001 17.5834Z" fill="#9E9E9E"/>
</svg>
