<svg width="20" height="20" viewBox="0 0 20 20" fill="none" xmlns="http://www.w3.org/2000/svg">
<path fill-rule="evenodd" clip-rule="evenodd" d="M2.87823e-07 10C6.44155e-05 8.27444 0.446639 6.57826 1.2963 5.07638C2.14596 3.57451 3.3698 2.31805 4.84881 1.42918C6.32781 0.540314 8.01166 0.0492834 9.73662 0.00383591C11.4616 -0.0416116 13.1689 0.360071 14.6927 1.16983C16.2165 1.97958 17.5048 3.16985 18.4323 4.6249C19.3599 6.07995 19.8952 7.75026 19.9861 9.47342C20.077 11.1966 19.7205 12.914 18.9512 14.4585C18.182 16.0031 17.0261 17.3224 15.596 18.288L6.54267 5.61333C6.46064 5.49837 6.34422 5.41244 6.2102 5.36791C6.07618 5.32338 5.93148 5.32257 5.79697 5.36557C5.66245 5.40858 5.54507 5.4932 5.46175 5.60722C5.37842 5.72124 5.33346 5.85877 5.33333 6V16H6.66667V8.08L14.44 18.9627C12.9152 19.7182 11.2228 20.0722 9.52302 19.991C7.82323 19.9098 6.17227 19.3962 4.72641 18.4988C3.28055 17.6014 2.08762 16.3498 1.26054 14.8626C0.433461 13.3754 -0.00040795 11.7017 2.87823e-07 10ZM13.3333 13.3333V5.33333H14.6667V13.3333H13.3333Z" fill="#9E9E9E"/>
</svg>
